<?xml version="1.0" standalone="no"?>
<!DOCTYPE svg PUBLIC "-//W3C//DTD SVG 1.1//EN" "http://www.w3.org/Graphics/SVG/1.1/DTD/svg11.dtd">
<svg width="100%" height="100%" viewBox="0 0 759 667" version="1.1" xmlns="http://www.w3.org/2000/svg" xmlns:xlink="http://www.w3.org/1999/xlink" xml:space="preserve" style="fill-rule:evenodd;clip-rule:evenodd;stroke-linecap:round;stroke-linejoin:round;stroke-miterlimit:10;">
    <path d="M1.2,223.5L1.2,257.4M246.1,303.7L235.5,302.4M232.5,315.7L221.9,314.3M215.5,426L223.1,426.9M219.7,433.5L223.3,434M527.9,507.3L533.3,508M553.5,399.3L548,398.7M326.3,433.9L324.3,435.7M540.7,492.2L535.3,491.5M533.3,508L538.7,508.6M526.9,419.5L527.7,419.5L528,419.4L528.2,419.3L528.4,419.2L528.6,419.1L528.8,418.9M512.9,417.8L526.9,419.5M559.9,408.3L559.9,408L560,406.2L559.8,404.6L559.3,403.2L558.6,402.5L557.8,402.1L557.7,402.2M556.2,414L556.3,414L557.2,413.9L557.9,413.5L558.5,412.8L559.1,411.5L559.6,409.8L559.9,408.3M557.7,402.1L553.2,401.6M545.9,400.7L537.8,399.7M536.4,411.6L543.1,412.4M551.7,413.5L556.2,414M528.8,418.9L536.8,411.7M537.8,399.7L537.7,399.6M536,411.6L536.4,411.6M537.7,399.6L537.6,399.6M542.2,393.3L542.2,392.9L542.1,392.4L541.9,392L541.6,391.7L541.3,391.4L540.9,391.2L540.5,391L540.1,390.9M540.1,390.9L519.6,388.4M542.2,400.2L542.2,393.3M324.3,438.9L323.9,439.2L322.9,440.6L322.5,442.3L322.6,444.1L323.3,445.8L324.4,447.3L326,448.4L327.8,449L329.6,449L331.3,448.4L332.3,447.6M332.2,447.8L333.9,446.3M325.8,437.4L324.2,438.9M353.6,446.2L354.4,446.2L354.6,446.1L354.9,446L355.1,445.9L355.3,445.8L355.5,445.6M319.4,442L321.2,442.2M338.9,444.4L353.6,446.2M355.5,445.6L361.7,440M318.1,425.4L317.9,425.6L317.7,425.8L317.6,426L317.5,426.2L317.4,426.5L317.3,426.7L317.3,427.2M317.3,427.2L317.3,439.6M325.6,418.6L318.1,425.4M317.3,439.6L317.3,440.1L317.4,440.5L317.6,440.9L318.2,441.5L318.6,441.8L319.4,442M238,367.4L237.8,367.6L237.7,367.8L237.5,368L237.4,368.2L237.3,368.5L237.2,368.7L237.2,369.2M237.2,369.2L237.2,381.6M250.6,356L238,367.4M237.2,381.6L237.2,382.1L237.4,382.5L237.5,382.9L237.8,383.2M234.5,374.4L237.2,374.7M242.6,363.3L234.5,362.3M273,357.9L252.5,355.4M252.5,355.4L252.2,355.4L252,355.4L251.7,355.4L251.5,355.5L251.2,355.6L251,355.7L250.8,355.8L250.6,356M568.4,448.5L555.4,446.9M542.2,551.6L550.5,552.7M359.6,576.1L364.5,571.8M294.6,492.6L289.7,496.9M3.5,219.2L2.1,220.8L1.4,222.4L1.3,224L1.8,225.7L3.1,227.3L4.9,228.8L7.4,230.2L10.4,231.5L14,232.6L17.9,233.6L22.2,234.4L26.8,235L31.6,235.3L36.5,235.5L41.4,235.4L46.2,235.1L50.9,234.6L55.3,233.8L59.4,232.9L63,231.8L66.2,230.6L68.9,229.2L70.9,227.7M20.5,204.3L3.5,219.2M22.8,204.5L20.5,204.3M5.8,219.5L22.8,204.5M68.7,227.4L66.6,228.9L64,230.2L60.9,231.4L57.2,232.5L53.2,233.3L48.8,234L44.2,234.4L39.5,234.6L34.7,234.6L29.9,234.4L25.3,233.9L21,233.3L17,232.4L13.4,231.4L10.2,230.1L7.7,228.8L5.7,227.3L4.4,225.8L3.7,224.2L3.7,222.6L4.4,221L5.8,219.5M85.6,212.5L68.7,227.4M87.9,212.7L85.6,212.5M70.9,227.7L87.9,212.7M70.9,227.7L70.9,261.7M1.2,257.4L1.3,258L1.8,259.6L3.1,261.2L4.9,262.7L7.4,264.1L10.4,265.4L14,266.6L17.9,267.5L22.2,268.3L26.8,268.9L31.6,269.3L36.5,269.4L41.4,269.3L46.2,269L50.9,268.5L55.3,267.8L59.4,266.9L63,265.8L66.2,264.5L68.9,263.1L70.9,261.7M87.9,190.1L87.9,212.7M87.9,190.1L89.6,188.6M89.6,188.6L89.6,245.2M70.9,261.7L89.6,245.2M22.8,213.6L22.9,216.9L23.3,220.4L24,223.9L25,227.5L26.2,230.9L27.6,234.2M22.8,204.5L22.8,213.6M20.5,181.6L29.7,182.8M36.2,155.4L36.2,154.2M36.2,154.2L72.2,158.7M76.6,188.7L87.9,190.1M20.5,204.3L20.5,181.6M72.2,158.7L73.9,157.2M36.2,154.2L37.9,152.7M37.9,152.7L73.9,157.2M78.3,187.2L89.6,188.6M22.2,180.1L29.7,181.1M20.5,181.6L22.2,180.1M33.4,152.1L29.7,155.4M33.4,152.1L37.9,152.7M37.9,152.7L35,155.2M35,155.2L71,159.8M73.9,157.2L71,159.8M73.9,157.2L78.3,157.8M78.3,157.8L74.6,161.1M29.7,155.4L74.6,161.1M74.6,190.5L29.7,184.8M29.7,184.8L29.7,155.4M74.6,161.1L74.6,190.5M78.3,157.8L78.3,187.2M78.3,187.2L74.6,190.5M27.6,180.8L22.2,180.1M27.6,269L27.6,293.8M27.6,293.8L22.2,293.1M22.2,268.3L22.2,293.1M110.6,118.3L71.1,153.1M110.6,107.7L110.6,118.3M150,72.8L110.6,107.7M150,83.5L150,72.8M189.5,48.7L150,83.5M189.5,38L189.5,48.7M229,3.2L189.5,38M229,116.4L229,3.2M229,315.2L229,229.5M154.5,521.3L227.3,457.1M144,519.9L144,520M118.6,542.3L144,519.9M118.6,553L118.6,542.3M31.6,629.7L118.6,553M31.6,516.6L31.6,629.7M27.6,520.1L31.6,516.6M27.6,407L27.6,520.1M31.6,403.4L27.6,407M31.6,290.3L31.6,403.4M27.6,293.8L31.6,290.3M71.1,142.5L56.8,155.1M29.7,179L27.6,180.8M71.1,153.1L71.1,142.5M42,552.6L41.9,550.9L41.6,549.7L41.1,549L40.4,548.9L39.8,549.5L39.1,550.7L38.6,552.3L38.3,554.2L38.1,556.1L38.3,557.7L38.6,559L39.1,559.7L39.8,559.8L40.4,559.2L41.1,558L41.6,556.4L41.9,554.5L42,552.6M71.1,142.5L65.7,141.8M65.7,141.8L51.4,154.4M29.7,173.5L22.2,180.1M31.6,403.4L26.2,402.7M26.2,293.6L26.2,402.7M27.6,407L22.2,406.3M27.6,520.1L22.2,519.4M22.2,406.3L22.2,519.4M26.2,402.7L22.2,406.3M110.6,118.3L105.2,117.6M105.2,117.6L71.1,147.7M31.6,629.7L26.2,629M26.2,519.9L26.2,629M150,72.8L144.6,72.2M110.6,107.7L105.2,107M144.6,72.2L105.2,107M105.2,107L105.2,117.6M189.5,48.7L184.1,48M184.1,48L150,78M229,3.2L223.6,2.5M189.5,38L184.1,37.4M223.6,2.5L184.1,37.4M184.1,37.4L184.1,48M437.9,40.2L333.4,27M437.9,29.5L437.9,40.2M542.3,42.7L437.9,29.5M542.3,53.3L542.3,42.7M646.7,66.5L542.3,53.3M646.7,55.8L646.7,66.5M751.2,69L646.7,55.8M751.2,182.1L751.2,69M756.6,182.8L751.2,182.1M756.6,296L756.6,182.8M751.2,295.3L756.6,296M751.2,408.4L751.2,295.3M756.6,409.1L751.2,408.4M756.6,522.2L756.6,409.1M521.1,492.5L527.2,493.3M639.3,507.4L756.6,522.2M521.1,481.9L521.1,492.5M476,476.2L521.1,481.9M259.6,459.6L313.4,466.4M331,468.6L351.4,471.2M229,116.3L229,229.5M333.4,16.4L223.6,2.5M333.4,27L333.4,16.4M751.2,69L753.2,67.2M646.7,55.8L648.8,54.1M753.2,67.2L648.8,54.1M751.2,182.1L753.2,180.3M753.2,180.3L753.2,67.2M756.6,296L758.6,294.2M756.6,182.8L758.6,181M758.6,294.2L758.6,181M758.6,181L753.2,180.3M542.3,53.3L544.3,51.5M646.7,64.4L544.3,51.5M542.3,42.7L544.3,40.9M437.9,29.5L439.9,27.7M544.3,40.9L439.9,27.7M544.3,51.5L544.3,40.9M751.2,408.4L753.2,406.6M753.2,406.6L753.2,295.5M333.4,27L335.5,25.2M437.9,38.1L335.5,25.2M756.6,409.1L758.6,407.3M758.6,407.3L753.2,406.6M756.6,522.2L758.6,520.4M758.6,520.4L758.6,407.3M333.4,16.4L335.5,14.6M335.5,25.2L335.5,14.6M223.6,2.5L225.6,0.7M335.5,14.6L225.6,0.7M248.1,309.7L247.9,307.4L247.6,305.6L247,304.4L246.2,303.7L245.4,303.8L244.5,304.6L243.7,306L242.9,307.9L242.4,310.2L242,312.7L241.9,315.1M241.9,315.1L231.3,313.8M235.5,302.4L234.8,302.5L233.9,303.3L233.1,304.7L232.3,306.6L231.8,308.9L231.4,311.3L231.3,313.8M248.1,358.3L248.1,309.7M241.9,315.1L241.9,363.2M231.3,313.8L231.3,315.5M234.5,321.6L234.5,386.1M228.3,386.3L228.3,327.1M228.3,327.1L228.4,324.7L228.8,322.2L229.4,319.9L230.1,318L230.9,316.6L231.8,315.8L232.7,315.7L233.4,316.3L234,317.6L234.4,319.4L234.5,321.6M217.7,325.8L228.3,327.1M217.7,325.8L217.8,323.3L218.2,320.9L218.8,318.6L219.5,316.6L220.3,315.2L221.2,314.5L221.9,314.3M217.7,401.4L217.7,325.8M215.5,426L214.9,425.7L214.2,424.8L213.7,423.2L213.5,421.9M217.7,426.8L217.7,426.4L217.7,426.2M217.7,427.6L217.7,426.8M219.7,433.5L219.5,433.5L218.8,432.9L218.2,431.6L217.8,429.8L217.7,427.6M448.5,477.6L448.5,466.3M437.9,476.3L448.5,477.6M437.9,465L448.5,466.3M437.9,476.3L437.9,465M246.8,508.2L246.8,496.8M208.1,542.9L227.3,525.9M196.9,541.5L208.1,542.9M185.7,540.1L185.7,540.2M174.4,538.6L185.7,540.1M227.3,492L174.4,538.6M246.8,496.8L250.8,493.3M246.8,508.2L250.8,504.6M250.8,504.6L250.8,493.3M250.8,493.3L246.8,496.8M246.8,496.8L246.8,508.2M246.8,508.2L250.8,504.6M250.8,504.6L250.8,493.3M237.9,442.4L237.9,555.6M233.7,434.9L237.9,442.4M233.7,422.3L233.7,434.9M259.6,536.4L259.6,427.5M239.9,553.8L257.6,538.2M243.6,423.5L242,424.9M242,424.9L241.6,425.4L241.3,426.3L241.1,427.3L241,428.4L241.1,429.3L241.3,430L241.6,430.3L242,430.1M242,430.1L248.8,424.1M233.7,434.9L223.1,433.5M223.1,423L223.1,433.5M237.9,442.4L227.3,441.1M223.1,433.5L227.3,441.1M227.3,441.1L227.3,554.2M448.5,466.3L437.9,465M437.9,465L437.9,476.3M437.9,476.3L448.5,477.6M448.5,477.6L448.5,466.3M472,520.2L472,453.5M466.6,519.5L466.6,519.7M439,516L466.6,519.5M476,516.6L476,454M159.2,523.8L148,522.3M148,522.3L146,524.1M146,524.1L157.2,525.6M157.2,525.6L159.2,523.8M226.7,554.1L237.9,555.6M237.9,555.6L239.9,553.8M227.3,553.6L226.7,554.1M196.1,541.5L196.3,541.4M185.7,540.1L185.5,540.2M185.5,540.2L196.1,541.5M466.3,519.7L471.7,520.4M471.7,520.4L476,516.6M466.6,519.5L466.3,519.7M589.6,591.1L593.9,587.3M359.7,592.9L362.8,590.2M467,574.5L478.3,575.9M270.9,645L275.1,641.2M284.6,622.5L283.3,623.7M262.8,641.7L256.3,647.4M118.6,542.4L280.3,562.8M275.6,536.5L259.6,534.5M227.3,530.5L222.8,529.9M189.2,525.6L143.9,520M436.1,556.8L439.1,554.1M458,537.5L521.1,481.9M666.2,585.8L662.5,585.3M624.6,580.5L622.9,580.3M570.2,573.7L565.8,573.1M532.2,568.9L479.8,562.3M442.1,557.5L436.1,556.8M640.8,608.2L666.2,585.8M410.7,579.2L640.8,608.2M323.7,655.9L410.7,579.2M256.3,647.4L323.7,655.9M415.4,569.1L419.7,565.4M373.6,572.3L384.8,573.7M307.7,630.4L319,631.8M509.7,486.9L513.9,483.2M513.9,483.2L508.5,482.5M508.5,482.5L504.3,486.2M504.3,486.2L509.7,486.9M257.6,538.2L259.6,536.4M128.3,539.7L126.3,541.5M126.3,541.5L137.5,542.9M137.5,542.9L139.5,541.1M139.5,541.1L128.3,539.7M323.7,655.9L323.7,666.6M410.7,579.2L410.7,589.9M323.7,666.6L410.7,589.9M256.3,647.4L256.3,658.1M256.3,658.1L323.7,666.6M640.8,608.2L640.8,618.9M410.7,589.9L640.8,618.9M666.2,585.8L666.2,596.4M640.8,618.9L666.2,596.4M118.5,553.1L280.3,573.5M463.3,543.5L521.1,492.5M128.3,539.7L128.3,541.8M148,522.3L148,524.4M508.5,482.5L508.5,486.8M476.7,407.7L464.3,419M538.9,342.5L476.7,407.7M551.3,331.3L538.9,342.5M551.3,359.7L551.3,331.3M551.3,359.7L519.7,388.4M506.4,400.5L464.3,438.6M464.3,438.6L464.3,419M443,403.6L430.5,414.9M476.7,407.7L443,403.6M464.3,419L430.5,414.9M227.8,398.9L227.8,409.6M227.8,398.9L261.6,403M430.5,414.9L261.6,403M227.8,409.6L322.7,421.2M363.7,426.2L464.3,438.6M274,391.8L261.6,403M443,403.6L274,391.8M505.1,338.4L443,403.6M505.1,338.4L538.9,342.5M455.4,363.9L443,375.1M492.7,324.7L455.4,363.9M505.1,313.5L492.7,324.7M505.1,338.4L505.1,313.5M443,403.6L443,375.1M421.6,359.7L409.2,371M455.4,363.9L421.6,359.7M443,375.1L409.2,371M307.8,363.9L274,359.8M409.2,371L307.8,363.9M274,391.8L274,359.8M307.8,363.9L320.2,352.6M421.6,359.7L320.2,352.6M458.9,320.6L421.6,359.7M458.9,320.6L492.7,324.7M434,334.2L421.6,345.5M446.5,321.2L434,334.2M458.9,309.9L446.5,321.2M458.9,320.6L458.9,309.9M421.6,359.7L421.6,345.5M354,339L320.2,334.8M387.8,341.4L354,339M421.6,345.5L387.8,341.4M320.2,352.6L320.2,334.8M400.2,330.1L387.8,341.4M434,334.2L400.2,330.1M240.2,387.6L227.8,398.9M240.2,387.6L274,391.8M320.2,352.6L286.5,348.5M274,359.8L286.5,348.5M354,339L366.5,327.7M400.2,330.1L366.5,327.7M366.5,327.7L332.7,323.6M320.2,334.8L332.7,323.6M412.7,317.1L400.2,330.1M412.7,317.1L446.5,321.2M400.2,328.3L412.7,317.1M366.5,324.2L400.2,328.3M366.5,324.2L391.3,301.6M391.3,301.6L458.9,309.9M274,361.9L240.2,387.6M336.2,310.6L347.9,312M286.5,348.5L336.2,310.6M366.5,327.7L366.5,324.2M400.2,330.1L400.2,328.3M384.4,307.9L357.5,304.6M332.7,323.6L357.5,304.6M471.3,309.3L458.9,320.6M471.3,309.3L505.1,313.5M398.2,302.5L403.7,297.5M471.3,309.3L403.7,297.5M517.5,327.1L505.1,338.4M517.5,327.1L551.3,331.3M403.7,297.5L370,293.4M357.5,304.6L370,293.4M505.1,324.9L517.5,327.1M348.6,299.3L361.6,300.9M336.2,310.6L348.6,299.3M527.9,507.3L527.7,507.2L527,506.6L526.5,505.4L526.2,503.7L526.1,501.6L526.2,499.3L526.5,497M526.5,497L531.9,497.6M533.3,508L533.1,507.9L532.4,507.3L531.9,506.1L531.6,504.4L531.5,502.3L531.6,500L531.9,497.6M554,413.8L545,459.7M531.9,497.6L550.1,405.4M550.1,405.4L550.6,403.3L551.3,401.5L552.1,400.1L552.9,399.4L553.7,399.4L554.3,400L554.9,401.2L555,401.8M526.5,497L544.6,404.8M544.6,404.8L550.1,405.4M544.6,404.8L545.2,402.6L545.9,400.8L546.7,399.5L547.5,398.8L548,398.7M307.1,485.6L322.4,438.6M322.4,438.6L323.4,436.7L324.9,435.2L326.7,434.3L328.9,434L331.1,434.3L333.2,435.2L335,436.7L336.5,438.5L337.3,440.7L337.6,442.9L337.3,445.1M337.3,445.1L324.9,483.1M326.3,433.9L326.9,433.4L328.7,432.5L330.9,432.2L333.1,432.5L335.2,433.4L337,434.9L338.4,436.7L339.3,438.9L339.6,441.1L339.2,443.3M339.2,443.3L337.3,445.1M339.2,443.3L326.6,482.1M580.3,221.1L304.1,187.3M580.3,255.1L580.3,221.1M574.9,254.4L580.3,255.1M574.9,288.3L574.9,254.4M580.3,289L574.9,288.3M580.3,322.9L580.3,289M574.9,322.3L580.3,322.9M574.9,356.2L574.9,322.3M552.1,353.4L574.9,356.2M298.7,322.4L317.7,324.7M298.7,288.4L298.7,322.4M304.1,289.1L298.7,288.4M304.1,255.1L304.1,289.1M298.7,254.5L304.1,255.1M298.7,220.5L298.7,254.5M304.1,221.2L298.7,220.5M304.1,187.3L304.1,221.2M580.3,221.1L582.3,219.3M304.1,187.3L306.1,185.5M582.3,219.3L306.1,185.5M580.3,255.1L582.3,253.3M582.3,253.3L582.3,219.3M574.9,288.3L576.9,286.5M576.9,286.5L576.9,254.6M580.3,322.9L582.3,321.1M580.3,289L582.3,287.2M582.3,321.1L582.3,287.2M582.3,287.2L576.9,286.5M574.9,356.2L576.9,354.4M576.9,354.4L576.9,322.5M298.7,220.5L300.7,218.7M304.1,219.2L300.7,218.7M298.7,288.4L300.7,286.6M304.1,287L300.7,286.6M539.2,508.5L538.9,508.6L538.2,508.4L537.6,507.5L537.1,506L536.9,504.1L536.9,501.9L537.1,499.5L537.6,497.2L538.2,495.2L538.9,493.6L539.7,492.6L540.5,492.2L541,492.3M533.3,508L532.8,507.7L532.2,506.8L531.7,505.3L531.5,503.4L531.5,501.2L531.7,498.9L532.2,496.6L532.8,494.6L533.5,493L534.3,491.9L535.1,491.5L535.3,491.5M539.6,503.1L539.4,503.1L539.1,502.9L538.8,502.2L538.8,501.3L538.8,500.2L539.1,499.2L539.4,498.3L539.7,497.8L540.1,497.7L540.2,497.7M529.5,405L529.3,405.1L529,405.2L528.6,405.3L528.2,405.4L527.8,405.5L527.3,405.5L526.9,405.5L526.4,405.4M527.2,402.4L527.1,402.6L526.9,402.9L526.8,403.2L526.6,403.6L526.5,404.1L526.5,404.5L526.4,405L526.4,405.4M529.5,405L529.4,404.5L529.3,404.1L529.1,403.7L528.8,403.3L528.5,403L528.1,402.7L527.7,402.5L527.2,402.4M506.7,399.9L527.2,402.4M526.4,405.4L505.9,402.9M505.9,402.9L505.9,402.5L506,402L506,401.6L506.1,401.1L506.3,400.7L506.4,400.4L506.6,400.1L506.7,399.9M529.5,405L529.5,417.4M529.5,417.4L529.3,417.6L529,417.7L528.6,417.8L528.2,417.9L527.8,417.9L527.3,417.9L526.9,417.9L526.4,417.9M526.4,417.9L526.4,405.4M505.9,406.3L523,408.4M505.9,406.3L505.9,402.9M527.2,402.4L539.8,391M539.8,391L540.3,391.1L540.7,391.3L541.1,391.6L541.4,391.9L541.7,392.3L541.9,392.7L542,393.1L542.1,393.6M542.1,393.6L537,398.2M534.6,400.3L535.4,399.2L536.2,398.4L537,398.2M534.6,400.3L529.5,405M506.7,399.9L519.3,388.5M539.8,391L519.3,388.5M522.8,391.2L522.6,391.5L522.9,391.9L523.6,392.2L524.6,392.4L525.7,392.5L526.9,392.4L527.8,392.2L528.4,391.8L528.6,391.5L528.3,391.1L527.7,390.8L526.7,390.6L525.5,390.5L524.4,390.6L523.4,390.8L522.8,391.2M520.1,399.4L520.3,399L520.1,398.6L519.4,398.3L518.4,398.1L517.2,398L516.1,398.1L515.1,398.3L514.5,398.7L514.3,399L514.6,399.4L515.3,399.7L516.3,399.9L517.5,400L518.6,399.9L519.5,399.7L520.1,399.4M534.6,412.8L534,412.2L533.6,411.1L533.3,409.6L533.2,407.8L533.3,405.8L533.6,403.8L534,402L534.6,400.3M529.5,417.4L534.6,412.8M556.7,409.7L556.8,411.2L557.2,412.3L557.7,412.8L558.3,412.6L558.9,411.7L559.4,410.3L559.8,408.6L559.9,406.8L559.8,405.3L559.4,404.2L558.9,403.7L558.3,404L557.7,404.8L557.2,406.2L556.8,407.9L556.7,409.7M536.2,401.5L535.7,402.8L535.4,404.3L535.1,405.9L535.1,409L535.4,410.2L535.7,411.1L536.2,411.5M536.2,411.5L535.9,411.5L535.6,411.6L535.4,411.7L535.2,411.8L534.9,412L534.8,412.3L534.7,412.5L534.6,412.8M536.2,401.5L535.9,401.5L535.6,401.4L535.4,401.2L535.2,401.1L534.9,400.9L534.8,400.7L534.7,400.5L534.6,400.3M519.3,388.5L519.5,388.4L519.6,388.4M332,444.3L331.6,442.6L330.7,441.1L329.3,440L327.7,439.5L326,439.6L324.7,440.4L323.7,441.6L323.4,443.3L323.7,444.9L324.7,446.4L326,447.5L327.7,448.1L329.3,447.9L330.7,447.2L331.6,445.9L332,444.3M332.3,447.7L332.2,447.8M339.6,441.1L339.9,440.8M332.9,431.4L331.6,432.1L331.5,432.2M338.1,432L336.5,431.3L334.7,431L332.9,431.4M353.1,432.1L353.1,431.7L353.2,431.2L353.2,430.8L353.3,430.3L353.5,429.9L353.6,429.6L353.8,429.3L353.9,429.1M356.2,431.7L356.1,431.2L356,430.8L355.8,430.4L355.5,430L355.2,429.7L354.8,429.4L354.4,429.2L353.9,429.1M353.1,432.1L353.5,432.2L354.5,432.2L354.9,432.1L355.3,432L355.7,431.9L356,431.8L356.2,431.7M319.7,424.9L319.5,425.1L319.4,425.4L319.2,425.7L319.1,426.1L319,426.6L318.9,427L318.9,427.9M319.7,424.9L353.9,429.1M353.1,432.1L339.2,430.4M332.7,429.6L335,429.5L337.3,429.8L339.2,430.4M332.7,429.6L318.9,427.9M353.1,444.6L353.1,432.1M356.2,431.7L356.2,444.1M353.1,444.6L354.9,444.6L355.3,444.5L355.7,444.4L356,444.3L356.2,444.1M363.7,424.8L356.2,431.7M353.9,429.1L361.5,422.3M361.5,422.3L361.9,422.4L362.7,422.8L363.1,423.2L363.3,423.5L363.5,424L363.7,424.4L363.7,424.8M327.2,418.1L319.7,424.9M327.2,418.1L361.5,422.3M331,420.7L332,420.9L332.7,421.2L333,421.6L332.8,422L332.2,422.3L331.2,422.5L330.1,422.6L328.9,422.6L327.9,422.4L327.2,422.1L327,421.7L327.2,421.3L327.8,421L328.7,420.7L329.9,420.6L331,420.7M351.5,425.3L350.5,425.1L349.8,424.8L349.5,424.4L349.7,424.1L350.3,423.7L351.2,423.5L352.4,423.4L353.5,423.5L354.5,423.7L355.2,424L355.5,424.4L355.3,424.7L354.7,425.1L353.8,425.3L352.6,425.4L351.5,425.3M363.7,424.8L363.7,428.2M357.4,433.9L363.7,428.2M357.4,439.6L357.4,439.5M357.5,439.5L357.4,439.6M338.1,432L338.2,431.9L338.3,431.8L338.5,431.6L338.6,431.4L338.8,431.1L338.9,430.9L339.1,430.7L339.2,430.4M332.7,429.6L332.9,429.9L332.9,430.2L333,430.4L333,431.3L332.9,431.4M318.9,427.9L318.9,440.4M325.6,418.6L326,418.3L326.4,418.2L326.8,418.1L327.2,418.1M259.3,372.5L259.3,373.1M260.1,369.4L259.9,369.6L259.8,369.9L259.6,370.2L259.5,370.6L259.4,371.1L259.3,371.5L259.3,372.5M272.7,358L260.1,369.4M273.5,359.5L273.5,359.1L273.5,358.7L273.4,358.4L273.3,358.2L273.1,358L273,357.9L272.9,357.9L272.7,358M273.5,362.2L273.5,359.5M259.3,372.5L238.8,369.9M238.8,369.9L238.8,369.5L238.8,369L238.9,368.6L239,368.1L239.1,367.7L239.3,367.4L239.4,367.1L239.6,366.9M239.6,366.9L260.1,369.4M256.2,375.5L242.1,373.8M242.1,373.8L242.1,374M272.7,358L252.2,355.5M252.2,355.5L239.6,366.9M256.6,366.8L256.8,366.4L256.5,366L255.8,365.7L254.8,365.5L253.7,365.5L252.5,365.6L251.6,365.8L251,366.1L250.8,366.5L251.1,366.9L251.8,367.2L252.8,367.4L253.9,367.5L255.1,367.4L256,367.1L256.6,366.8M259.3,358.6L259.1,359L259.4,359.4L260.1,359.7L261.1,359.9L262.2,360L263.3,359.9L264.3,359.6L264.9,359.3L265.1,358.9L264.8,358.5L264.1,358.2L263.1,358L262,358L260.8,358L259.9,358.3L259.3,358.6M450.5,445.5L450.5,450.9M450.5,445.5L478.7,448.9M478.7,448.9L478.7,454.4M450.5,450.9L478.7,454.4M212.9,405.7L207.5,405M223.3,396.3L212.9,405.7M217.9,395.6L223.3,396.3M228.2,386.3L217.9,395.6M233.6,386.9L228.2,386.3M244,377.5L233.6,386.9M238.6,376.9L244,377.5M241.8,373.9L238.6,376.9M275.1,349.4L266.5,357.1M269.7,348.7L275.1,349.4M280,339.3L269.7,348.7M285.4,340L280,339.3M295.8,330.6L285.4,340M290.4,329.9L295.8,330.6M298.7,322.4L290.4,329.9M552.1,353.4L551.3,353.3M582.3,355.1L576.9,354.4M571.9,364.5L582.3,355.1M566.5,363.8L571.9,364.5M556.2,373.2L566.5,363.8M561.6,373.9L556.2,373.2M551.2,383.2L561.6,373.9M545.8,382.6L551.2,383.2M537,390.5L545.8,382.6M520.1,411.4L523.4,408.5M514.7,410.7L520.1,411.4M504.4,420.1L514.7,410.7M509.8,420.8L504.4,420.1M499.4,430.2L509.8,420.8M494,429.5L499.4,430.2M483.6,438.9L494,429.5M489.1,439.6L483.6,438.9M478.7,448.9L489.1,439.6M452.5,443.7L450.5,445.5M424.4,440.2L452.5,443.7M422.4,442L424.4,440.2M394.2,438.6L422.4,442M396.2,436.8L394.2,438.6M368.1,433.3L396.2,436.8M366.1,435.1L368.1,433.3M309.8,428.2L317.3,429.1M357.3,434L366.1,435.1M311.8,426.4L309.8,428.2M283.6,423L311.8,426.4M281.6,424.8L283.6,423M253.5,421.3L281.6,424.8M255.4,419.5L253.5,421.3M227.3,416.1L255.4,419.5M225.3,417.9L227.3,416.1M197.1,414.4L225.3,417.9M207.5,405L197.1,414.4M489.1,439.6L489.1,445M478.7,454.4L489.1,445M424.4,440.2L424.4,445.7M424.4,445.7L450.5,448.9M422.4,442L422.4,447.5M422.4,447.5L424.4,445.7M394.2,438.6L394.2,444M394.2,444L422.4,447.5M494,429.5L494,434.9M488.9,439.5L494,434.9M368.1,433.3L368.1,438.8M368.1,438.8L394.2,442M366.1,435.1L366.1,440.6M366.1,440.6L368.1,438.8M309.8,428.2L309.8,433.7M309.8,433.7L317.3,434.6M357.3,439.5L366.1,440.6M499.4,430.2L499.4,435.6M509.8,420.8L509.8,426.2M499.4,435.6L509.8,426.2M494,434.9L499.4,435.6M283.6,423L283.6,428.4M283.6,428.4L309.8,431.6M253.5,421.3L253.5,426.7M281.6,424.8L281.6,430.2M253.5,426.7L281.6,430.2M281.6,430.2L283.6,428.4M514.7,410.7L514.7,416.2M509.6,420.8L514.7,416.2M227.3,416.1L227.3,421.5M227.3,421.5L253.5,424.7M197.1,414.4L197.1,419.8M225.3,417.9L225.3,423.3M197.1,419.8L225.3,423.3M225.3,423.3L227.3,421.5M520.1,411.4L520.1,416.8M520.1,416.8L523.4,413.9M514.7,416.2L520.1,416.8M217.9,395.6L217.9,401.1M217.9,401.1L218,401.1M545.8,382.6L545.8,388M541.7,391.8L545.8,388M551.2,383.2L551.2,388.7M561.6,373.9L561.6,379.3M551.2,388.7L561.6,379.3M545.8,388L551.2,388.7M238.6,376.9L238.6,382.3M238.6,382.3L238.7,382.3M566.5,363.8L566.5,369.2M561.4,373.8L566.5,369.2M571.9,364.5L571.9,369.9M582.3,355.1L582.3,360.5M571.9,369.9L582.3,360.5M566.5,369.2L571.9,369.9M269.7,348.7L269.7,354.1M269.7,354.1L269.8,354.2M290.4,329.9L290.4,335.4M290.4,335.4L290.5,335.4M418.6,492.8L416.5,494.6M418.6,492.8L491.5,575.5M491.5,575.5L489.5,577.3M416.5,494.6L489.5,577.3M489.5,577.3L478.3,575.9M467,574.5L455.8,573.1M455.8,573.1L416.5,528.5M416.5,528.5L416.5,517.2M416.5,505.9L416.5,494.6M381.9,511.1L381.9,499.8M381.9,533.8L381.9,522.4M367,586.5L375.7,555.9M378.3,546.6L381.9,533.8M362.8,590.2L367,586.5M381.9,499.8L375.9,520.9M360.7,575.1L357,588.1M381.9,499.8L376.5,499.1M376.5,499.1L372.6,513.1M353.6,580.5L353.3,581.5M356.7,479.7L356.7,457.1M351.4,479L356.7,479.7M351.4,456.4L356.7,457.1M351.4,479L351.4,456.4M426,445.9L426,446.6M426,469.3L426,491.9M426.8,446L426,446.6M428.1,467.5L426,469.3M428.1,490.1L426,491.9M428.1,467.5L428.1,490.1M416.5,505.9L416.5,517.2M409.1,552.1L409.1,574.7M407,553.9L409.1,552.1M407,531.3L407,553.9M409.1,529.5L407,531.3M409.1,506.9L409.1,529.5M407,508.6L409.1,506.9M407,486L407,508.6M409.1,484.2L407,486M409.1,461.6L409.1,484.2M407,463.4L409.1,461.6M407,445.6L407,463.4M426,446.6L426,445.9M426.8,446L426,446.6M428.1,467.5L428.1,446.1M426,469.3L428.1,467.5M426,491.9L426,469.3M428.1,490.1L426,491.9M428.1,503.6L428.1,490.1M428.1,558L428.1,541.6M419.7,565.4L428.1,558M409.1,574.7L415.4,569.1M407,463.4L401.6,462.7M401.6,444.9L401.6,462.7M407,486L401.6,485.3M407,508.6L401.6,508M401.6,485.3L401.6,508M407,531.3L401.6,530.6M407,553.9L401.6,553.2M401.6,530.6L401.6,553.2M381.9,522.4L381.9,511.1M351.4,479L351.4,490.2M356.7,479.7L351.4,479M356.7,457.1L356.7,479.7M351.4,456.4L356.7,457.1M351.4,445.9L351.4,456.4M401.6,462.7L401.6,444.9M407,463.4L401.6,462.7M407,486L407,463.4M401.6,485.3L407,486M401.6,508L401.6,485.3M407,508.6L401.6,508M407,531.3L407,508.6M401.6,530.6L407,531.3M401.6,553.2L401.6,530.6M407,553.9L401.6,553.2M407,576.5L407,553.9M384.8,573.7L407,576.5M371.1,572L373.6,572.3M407,486L409.1,484.2M407,463.4L409.1,461.6M409.1,484.2L409.1,461.6M407,508.6L409.1,506.9M407,531.3L409.1,529.5M409.1,529.5L409.1,506.9M407,576.5L409.1,574.7M407,553.9L409.1,552.1M409.1,574.7L409.1,552.1M543.1,517.3L543.2,511.7L543.6,505.9L544.2,500L545,494.1L546,488.3L547.2,482.7L548.6,477.3L550.1,472.2L551.8,467.5L553.7,463.2L555.6,459.3L557.6,456L559.7,453.3L561.8,451.1L563.9,449.6L565.9,448.7L567.9,448.5L569.9,448.9L571.7,450L573.4,451.7L575,454L576.4,457L577.6,460.5L578.6,464.4L579.4,468.9L580,473.5M551.7,551.6L550.1,550.1L548.6,547.7L547.2,544.8L546,541.3L545,537.3L544.2,532.9L543.6,528L543.2,522.8L543.1,517.3M530.1,515.7L530.2,510L530.3,507.6M546.6,451.7L546.7,451.6L548.8,449.5L550.8,447.9L552.9,447L554.9,446.8L555.4,446.9M542.2,551.6L540.7,551.2L538.8,550.1L537.1,548.4L535.6,546.1L534.2,543.1L532.9,539.7L531.9,535.7L531.1,531.2L530.6,526.4L530.2,521.2L530.1,515.7M557.5,504.6L557.7,501.8L557.8,500M557.8,508.6L557.7,507.2L557.5,504.6M626.1,498.5L626.1,569.5M626.1,569.5L611.8,567.7M570,571.5L570.2,571.5M570,571.5L570,569.5M557.8,546.2L557.8,489.9M557.8,489.9L570,491.4M570,491.4L570,482.3M570,482.3L570.2,482.4M626.1,498.5L585.1,493.3M639.3,486.8L598.3,481.6M639.3,486.8L626.1,498.5M639.3,557.8L639.3,486.8M626.1,569.5L639.3,557.8M570,482.3L570.2,482.1M557.8,489.9L571.1,478.2M571.1,478.2L574.2,478.6M315.3,616.2L315.3,545.2M315.3,545.2L330.9,531.5M315.3,616.2L327.1,605.8M315.3,545.2L280.3,540.7M280.3,540.7L295.8,527.1M280.3,611.8L315.3,616.2M280.3,540.7L280.3,611.8M275.3,530.3L275.6,524.7L276.5,519.4L278,514.2L280.1,509.3L282.8,504.7L286,500.6L289.7,496.9L293.9,493.7L298.4,491L303.2,488.9L308.3,487.5L313.7,486.6L319.1,486.3L324.6,486.7L330.2,487.7L335.6,489.3L341,491.6L346.1,494.3L350.9,497.7L355.4,501.5L359.6,505.7L363.3,510.3L366.5,515.3L369.1,520.5L371.3,525.9L372.8,531.5L373.7,537.1L374,542.7L373.7,548.3L372.8,553.6L371.3,558.8L369.1,563.7L366.5,568.3L363.3,572.4L359.6,576.1L355.4,579.3L353,580.9M280.3,552.9L280.1,552.5L278,547.1L276.5,541.5L275.6,535.9L275.3,530.3M294.6,492.6L298.8,489.4L303.3,486.7L307.3,484.9M326,482.1L329.6,482.4L335.1,483.4L340.6,485L345.9,487.2L351,490L355.8,493.3L360.4,497.1L364.5,501.4L368.2,506L371.4,510.9L374.1,516.2L376.2,521.6L377.7,527.1L378.6,532.8L379,538.4L378.6,543.9L377.7,549.3L376.2,554.5L374.1,559.4L371.4,563.9L368.2,568.1L364.5,571.8M279.4,637.5L286.4,612.6M275.1,641.2L279.4,637.5M266.7,648.7L270.9,645M280.3,600.3L266.7,648.7M266.7,648.7L261,648M280.3,579.6L261,648M342.3,583.8L342.3,572.5M346.3,580.3L342.3,583.8M346.3,569L346.3,580.3M369.6,610.6L346.3,569M365.4,614.4L369.6,610.6M356.9,621.9L361.2,618.1M346.3,602.9L356.9,621.9M346.3,591.6L346.3,602.9M342.3,595.1L346.3,591.6M342.3,606.5L342.3,595.1M331.7,644.1L342.3,606.5M327.5,647.8L331.7,644.1M319,655.3L323.2,651.6M342.3,572.5L319,655.3M342.3,572.5L336.7,571.8M319,655.3L313.4,654.6M336.7,571.8L313.4,654.6M346.3,580.3L346.1,580.3M346.3,569L346.1,569M346.3,602.9L346.1,602.9M356.9,621.9L351.3,621.1M346.1,611.8L351.3,621.1M582.8,534.8L580.7,536.7M582.8,534.8L644.6,604.8M644.6,604.8L642.5,606.7M580.7,536.7L642.5,606.7M642.5,606.7L631.2,605.3M620,603.9L608.8,602.5M608.8,602.5L580.7,570.6M580.7,570.6L580.7,559.3M580.7,559.3L570.1,558M570.1,558L570.1,569.3M570.1,569.3L542.1,594.1M542.1,594.1L530.8,592.6M519.6,591.2L508.4,589.8M508.4,589.8L570.1,535.4M570.1,535.4L570.1,546.7M570.1,546.7L580.7,548M580.7,548L580.7,536.7M570.2,535.3L570.1,535.4M570.2,546.6L570.1,546.7M570.2,569.2L570.1,569.3M662.2,589.3L651,587.9M639.8,586.4L628.6,585M628.6,585L613.5,567.9M636.6,560.2L662.2,589.3M638.7,558.4L664.4,587.4M664.4,587.4L662.2,589.3M580.8,483.5L570.2,482.1M580.8,483.5L580.8,536.6M580.7,547.9L570.2,546.6M570.2,482.1L570.2,546.6M602.5,464.3L591.9,463M602.5,464.3L580.8,483.5M591.9,463L570.2,482.1M587.3,484.5L587.4,485.4L587.6,486.1L587.9,486.4L588.3,486.3L588.7,485.7L589,484.9L589.2,483.9L589.3,482.8L589.2,481.9L589,481.2L588.7,480.9L588.3,481.1L587.9,481.6L587.6,482.4L587.4,483.5L587.3,484.5M584.5,493.7L584.5,536.8M598.8,481.7L598.8,481.2M598.8,481.2L584.5,493.7M602.5,482.1L602.5,464.3M593.8,587.4L594.8,586.6M580.8,598.9L589.6,591.1M580.8,570.7L580.8,598.9M596,476.8L596,475.9L595.8,475.2L595.4,474.9L595.1,475.1L594.7,475.6L594.4,476.4L594.2,477.5L594.1,478.5L594.2,479.5L594.4,480.1L594.7,480.4L595.1,480.3L595.4,479.7L595.8,478.9L596,477.9L596,476.8M580.8,598.9L570.2,597.5M570.2,558L570.2,597.5M301.8,521L302,522L302.5,523L303.4,523.6L304.4,524L305.4,523.9L306.2,523.4L306.7,522.6L306.9,521.7L306.7,520.7L306.2,519.7L305.4,519.1L304.4,518.7L303.4,518.8L302.5,519.3L302,520.1L301.8,521M324.9,608.6L324.8,607.9M321.6,610.7L322.3,610.8L323.3,610.8L324.1,610.3L324.7,609.5L324.9,608.6M294.5,526.9L294.5,528.3M332.2,587.7L332.2,531.6M332.2,531.6L294.5,526.9M342.1,519.3L284.6,512.1M342.1,572.5L342.1,519.3M342.1,634.7L342.1,607.3M319,631.8L319.8,631.9M334.6,633.8L342.1,634.7M284.6,627.5L307.7,630.4M284.6,619L284.6,627.5M284.6,512.1L284.6,537M324.9,523.9L324.7,522.9L324.1,522L323.3,521.3L322.3,521L321.3,521.1L320.5,521.5L319.9,522.3L319.7,523.3L319.9,524.3L320.5,525.2L321.3,525.9L322.3,526.2L323.3,526.1L324.1,525.7L324.7,524.9L324.9,523.9M342.1,519.3L346.1,515.8M284.6,512.1L288.6,508.5M346.1,515.8L288.6,508.5M342.3,583.6L346.1,580.3M346.1,580.3L346.1,515.8M342.1,634.7L346.1,631.2M346.1,631.2L346.1,591.8M5.8,219.5L5.8,227.4M6.5,228L22.8,213.6M22.8,213.6L76.6,220.4M217.7,426.8L223.1,427.5M217.7,427.6L223.1,428.3M242,430.1L241.3,430M514.4,416.4L526.4,417.9M529.5,417.4L529.4,417.9L529.3,418.3L529.1,418.6L528.8,418.9M526.4,417.9L526.4,418.3L526.5,418.7L526.5,419L526.6,419.3L526.8,419.4L526.9,419.5M554.9,410L555,407.9L555.4,405.9L555.9,404.1L556.6,402.8L557.3,402.2L557.7,402.1M556.2,414L555.9,413.9L555.4,413.2L555,411.8L554.9,410M537.8,399.8L537.5,399.7L536.8,400.3L536.2,401.5M536.2,411.5L536.4,411.5M536.2,411.6L536.1,411.8L535.3,412.6L534.6,412.8M537,398.2L536.9,398.5L537,398.7L537.1,399L537.2,399.2L537.6,399.6L537.7,399.6M537,398.2L537.5,398.8L537.9,399.7M542.1,400.2L542.1,393.6M542.2,393.3L542.2,393.4L542.1,393.6M540.1,390.9L540,390.9L539.8,391M333.8,444L333.5,445.9L332.5,447.5L332.3,447.7M324.2,438.8L325.4,438.1L327.2,437.6L329.2,437.9L331,438.8L332.5,440.2L333.5,442L333.8,444M339.9,440.8L340.3,440.2L340.9,438.9L341.1,437.4L340.9,435.9L340.3,434.4L339.3,433.1L338.1,432M339.3,442.9L353.1,444.6M339.2,430.4L340.7,431.7L341.9,433.4L342.7,435.2L343,437.1L342.7,439L341.9,440.6L340.7,442L339.4,442.8M356.2,444.1L360.8,439.9M355.5,445.6L355.8,445.3L356,445L356.1,444.6L356.2,444.1M353.1,444.6L353.1,445L353.2,445.4L353.2,445.7L353.3,446L353.5,446.1L353.6,446.2M319.4,442L319.2,441.9L319.1,441.8L319,441.5L318.9,441.2L318.9,440.8L318.9,440.4M318.9,440.4L321.7,440.7M329.8,432.2L330,431.9L331.2,430.6L332.7,429.6M317.3,427.2L317.3,427.4L317.5,427.5L317.7,427.7L318.1,427.8L318.4,427.9L318.9,427.9M319.7,424.9L319.2,424.9L318.8,425L318.4,425.2L318.1,425.4M317.3,439.6L317.3,439.8L317.5,440L317.7,440.1L318.1,440.2L318.4,440.3L318.9,440.4M238.8,369.9L238.8,376.7M238.8,369.9L238.3,369.9L238,369.8L237.7,369.7L237.4,369.5L237.3,369.4L237.2,369.2M239.6,366.9L239.2,366.9L238.7,367L238.3,367.2L238,367.4M238.6,382.4L238.3,382.3L238,382.2L237.7,382.1L237.4,382L237.3,381.8L237.2,381.7L237.2,381.6M250.6,356L250.9,355.8L251.3,355.6L251.8,355.5L252.2,355.5M252.2,355.5L252.4,355.4L252.5,355.4" style="fill:none;stroke-width:1px;stroke:black;"/>
</svg>
